<svg xmlns="http://www.w3.org/2000/svg" xmlns:xlink="http://www.w3.org/1999/xlink" width="500" zoomAndPan="magnify" viewBox="0 0 375 374.999991" height="500" preserveAspectRatio="xMidYMid meet" version="1.0"><defs><g/><clipPath id="7ad18862ac"><path d="M 76 26.472656 L 299 26.472656 L 299 252 L 76 252 Z M 76 26.472656 " clip-rule="nonzero"/></clipPath><clipPath id="bd99d406cb"><path d="M 296 273 L 363.199219 273 L 363.199219 335.042969 L 296 335.042969 Z M 296 273 " clip-rule="nonzero"/></clipPath><clipPath id="b011d32ba0"><path d="M 11.375 273 L 79 273 L 79 335.042969 L 11.375 335.042969 Z M 11.375 273 " clip-rule="nonzero"/></clipPath></defs><path fill="#083e78" d="M 273.832031 158.800781 L 273.832031 75.039062 L 193.554688 53.207031 L 193.554688 158.800781 L 273.832031 158.800781 " fill-opacity="1" fill-rule="nonzero"/><g clip-path="url(#7ad18862ac)"><path fill="#083e78" d="M 187.40625 26.484375 L 76.8125 56.5625 L 76.8125 192.222656 C 76.8125 214.128906 83.179688 234.546875 94.167969 251.730469 C 98.105469 250.34375 102.074219 249.046875 106.070312 247.835938 C 94.90625 231.582031 88.894531 212.367188 88.894531 192.222656 L 88.894531 65.800781 L 187.40625 39.011719 L 285.917969 65.800781 L 285.917969 192.222656 C 285.917969 212.347656 279.921875 231.542969 268.777344 247.785156 C 272.773438 248.992188 276.746094 250.289062 280.683594 251.671875 C 291.648438 234.503906 298.003906 214.105469 298.003906 192.222656 L 298.003906 56.5625 L 187.40625 26.484375 " fill-opacity="1" fill-rule="nonzero"/></g><path fill="#083e78" d="M 187.511719 285.96875 C 170.757812 285.96875 154.265625 287.746094 138.160156 291.277344 C 152.992188 298.664062 169.714844 302.820312 187.40625 302.820312 C 205.125 302.820312 221.871094 298.652344 236.714844 291.246094 C 220.65625 287.738281 204.214844 285.96875 187.511719 285.96875 " fill-opacity="1" fill-rule="nonzero"/><path fill="#083e78" d="M 329.402344 192.15625 C 329.402344 192.15625 322.472656 194.570312 317.933594 199.699219 C 318.070312 197.21875 318.144531 194.726562 318.144531 192.222656 L 318.144531 189.839844 C 329.703125 185.964844 328.980469 169.074219 328.980469 169.074219 C 328.980469 169.074219 322.335938 171.902344 318.144531 177.242188 L 318.144531 167.648438 C 329.703125 163.773438 328.980469 146.882812 328.980469 146.882812 C 328.980469 146.882812 322.335938 149.714844 318.144531 155.054688 L 318.144531 145.460938 C 329.703125 141.582031 328.980469 124.691406 328.980469 124.691406 C 328.980469 124.691406 322.335938 127.523438 318.144531 132.863281 L 318.144531 123.269531 C 329.703125 119.394531 328.980469 102.5 328.980469 102.5 C 328.980469 102.5 322.335938 105.332031 318.144531 110.671875 L 318.144531 101.078125 C 329.703125 97.203125 328.980469 80.3125 328.980469 80.3125 C 328.980469 80.3125 322.335938 83.144531 318.144531 88.480469 L 318.144531 78.890625 C 329.703125 75.011719 328.980469 58.121094 328.980469 58.121094 C 328.980469 58.121094 322.335938 60.953125 318.144531 66.292969 L 318.144531 62.355469 C 329.03125 53.847656 316.132812 39.011719 316.132812 39.011719 C 316.132812 39.011719 303.234375 53.847656 314.117188 62.355469 L 314.117188 66.292969 C 309.929688 60.953125 303.285156 58.121094 303.285156 58.121094 C 303.285156 58.121094 302.558594 75.011719 314.117188 78.890625 L 314.117188 88.484375 C 309.929688 83.144531 303.285156 80.3125 303.285156 80.3125 C 303.285156 80.3125 302.558594 97.203125 314.117188 101.078125 L 314.117188 110.671875 C 309.929688 105.332031 303.285156 102.5 303.285156 102.5 C 303.285156 102.5 302.558594 119.394531 314.117188 123.269531 L 314.117188 132.863281 C 309.929688 127.523438 303.285156 124.691406 303.285156 124.691406 C 303.285156 124.691406 302.558594 141.582031 314.117188 145.460938 L 314.117188 155.054688 C 309.929688 149.714844 303.285156 146.882812 303.285156 146.882812 C 303.285156 146.882812 302.558594 163.773438 314.117188 167.648438 L 314.117188 177.242188 C 309.929688 171.902344 303.285156 169.074219 303.285156 169.074219 C 303.285156 169.074219 302.558594 185.964844 314.117188 189.839844 L 314.117188 192.222656 C 314.117188 194.546875 314.050781 196.863281 313.929688 199.167969 C 310.097656 193.640625 303.765625 190.421875 303.765625 190.421875 C 303.765625 190.421875 301.960938 206.695312 312.640625 211.640625 C 311.066406 221.902344 308.230469 231.910156 304.152344 241.550781 C 301.804688 247.105469 299.078125 252.449219 295.996094 257.570312 C 297.246094 258.09375 298.492188 258.628906 299.730469 259.171875 C 302.796875 254.03125 305.511719 248.675781 307.863281 243.117188 C 312.066406 233.179688 314.992188 222.863281 316.617188 212.28125 C 328.972656 209.597656 329.402344 192.15625 329.402344 192.15625 " fill-opacity="1" fill-rule="nonzero"/><path fill="#083e78" d="M 62.101562 211.183594 C 71.394531 206.519531 71.746094 192.15625 71.746094 192.15625 C 71.746094 192.15625 65.402344 194.367188 60.878906 199.050781 C 60.757812 196.78125 60.695312 194.507812 60.695312 192.222656 L 60.695312 189.769531 C 72.039062 185.761719 71.320312 169.074219 71.320312 169.074219 C 71.320312 169.074219 64.894531 171.816406 60.695312 176.984375 L 60.695312 167.578125 C 72.039062 163.570312 71.320312 146.882812 71.320312 146.882812 C 71.320312 146.882812 64.894531 149.625 60.695312 154.796875 L 60.695312 145.386719 C 72.039062 141.378906 71.320312 124.691406 71.320312 124.691406 C 71.320312 124.691406 64.894531 127.433594 60.695312 132.605469 L 60.695312 123.195312 C 72.039062 119.191406 71.320312 102.5 71.320312 102.5 C 71.320312 102.5 64.894531 105.242188 60.695312 110.414062 L 60.695312 101.003906 C 72.039062 97 71.320312 80.3125 71.320312 80.3125 C 71.320312 80.3125 64.894531 83.050781 60.695312 88.222656 L 60.695312 78.816406 C 72.039062 74.808594 71.320312 58.121094 71.320312 58.121094 C 71.320312 58.121094 64.894531 60.859375 60.695312 66.035156 L 60.695312 62.191406 C 71.207031 53.65625 58.476562 39.011719 58.476562 39.011719 C 58.476562 39.011719 45.410156 54.039062 56.667969 62.519531 L 56.667969 66.5625 C 52.496094 61.046875 45.628906 58.121094 45.628906 58.121094 C 45.628906 58.121094 44.894531 75.214844 56.667969 78.957031 L 56.667969 88.75 C 52.496094 83.238281 45.628906 80.3125 45.628906 80.3125 C 45.628906 80.3125 44.894531 97.40625 56.667969 101.148438 L 56.667969 110.941406 C 52.496094 105.429688 45.628906 102.5 45.628906 102.5 C 45.628906 102.5 44.894531 119.59375 56.667969 123.339844 L 56.667969 133.132812 C 52.496094 127.621094 45.628906 124.691406 45.628906 124.691406 C 45.628906 124.691406 44.894531 141.789062 56.667969 145.527344 L 56.667969 155.324219 C 52.496094 149.808594 45.628906 146.882812 45.628906 146.882812 C 45.628906 146.882812 44.894531 163.976562 56.667969 167.71875 L 56.667969 177.511719 C 52.496094 172 45.628906 169.074219 45.628906 169.074219 C 45.628906 169.074219 44.894531 186.167969 56.667969 189.910156 L 56.667969 192.222656 C 56.667969 194.875 56.75 197.511719 56.90625 200.136719 C 53.1875 194.019531 46.109375 190.421875 46.109375 190.421875 C 46.109375 190.421875 44.109375 208.464844 56.792969 212.328125 C 56.8125 212.414062 56.828125 212.5 56.851562 212.585938 C 57.066406 212.570312 57.28125 212.546875 57.492188 212.523438 C 57.699219 212.578125 57.90625 212.625 58.121094 212.671875 C 58.152344 212.589844 58.179688 212.507812 58.210938 212.425781 L 58.21875 212.425781 C 59.847656 222.953125 62.765625 233.222656 66.953125 243.117188 C 69.3125 248.703125 72.042969 254.082031 75.125 259.242188 C 76.363281 258.695312 77.609375 258.167969 78.859375 257.640625 C 75.757812 252.5 73.019531 247.128906 70.660156 241.550781 C 66.523438 231.765625 63.664062 221.605469 62.101562 211.183594 " fill-opacity="1" fill-rule="nonzero"/><path fill="#083e78" d="M 236.734375 308.96875 C 221.101562 315.578125 204.503906 318.933594 187.40625 318.933594 C 170.308594 318.933594 153.710938 315.578125 138.082031 308.96875 C 130.4375 305.734375 123.191406 301.796875 116.390625 297.183594 C 114.800781 297.703125 113.21875 298.242188 111.640625 298.792969 C 119.371094 304.300781 127.6875 308.945312 136.511719 312.679688 C 152.644531 319.503906 169.765625 322.960938 187.40625 322.960938 C 205.046875 322.960938 222.171875 319.503906 238.300781 312.679688 C 247.152344 308.933594 255.488281 304.273438 263.242188 298.742188 C 261.664062 298.191406 260.078125 297.65625 258.492188 297.140625 C 251.667969 301.769531 244.398438 305.726562 236.734375 308.96875 " fill-opacity="1" fill-rule="nonzero"/><path fill="#083e78" d="M 283.609375 299.582031 C 222.492188 272.476562 152.53125 272.476562 91.414062 299.582031 C 86.386719 288.398438 81.359375 277.21875 76.332031 266.039062 C 146.964844 234.65625 228.054688 234.65625 298.691406 266.039062 C 293.664062 277.21875 288.636719 288.398438 283.609375 299.582031 " fill-opacity="1" fill-rule="nonzero"/><g clip-path="url(#bd99d406cb)"><path fill="#083e78" d="M 339.6875 335.148438 C 326.199219 323.75 311.652344 313.890625 296.042969 305.625 C 301.722656 294.757812 307.398438 283.894531 313.078125 273.03125 C 331.136719 282.574219 347.980469 293.988281 363.570312 307.1875 C 352.042969 305.222656 340.464844 304.070312 328.78125 303.777344 C 333.085938 314.007812 336.730469 324.449219 339.6875 335.148438 " fill-opacity="1" fill-rule="nonzero"/></g><g clip-path="url(#b011d32ba0)"><path fill="#083e78" d="M 35.335938 335.148438 C 48.820312 323.75 63.371094 313.890625 78.976562 305.625 C 73.300781 294.757812 67.621094 283.894531 61.945312 273.03125 C 43.886719 282.574219 27.042969 293.988281 11.453125 307.1875 C 22.976562 305.222656 34.554688 304.070312 46.242188 303.777344 C 41.933594 314.007812 38.289062 324.449219 35.335938 335.148438 " fill-opacity="1" fill-rule="nonzero"/></g><path fill="#ffffff" d="M 250.613281 130.503906 C 248.5 129.207031 246.257812 128.175781 243.949219 127.414062 C 245.457031 123.808594 246.289062 119.984375 246.441406 116.132812 L 256.71875 116.132812 C 256.414062 121.667969 254.152344 126.6875 250.613281 130.503906 Z M 216.769531 99.164062 C 218.890625 100.464844 221.128906 101.492188 223.4375 102.257812 C 221.925781 105.859375 221.097656 109.6875 220.945312 113.539062 L 210.664062 113.539062 C 210.976562 108.003906 213.234375 102.984375 216.769531 99.164062 Z M 234.988281 113.539062 L 234.988281 103.878906 C 237.15625 103.792969 239.320312 103.492188 241.4375 102.976562 C 242.886719 106.34375 243.691406 109.929688 243.847656 113.539062 Z M 234.988281 125.792969 L 234.988281 116.132812 L 243.847656 116.132812 C 243.691406 119.738281 242.886719 123.324219 241.4375 126.691406 C 239.320312 126.179688 237.15625 125.878906 234.988281 125.792969 Z M 242.84375 129.78125 C 244.855469 130.425781 246.816406 131.285156 248.675781 132.367188 C 245.457031 135.117188 241.476562 137 237.085938 137.648438 C 239.453125 135.277344 241.371094 132.617188 242.84375 129.78125 Z M 234.988281 136.082031 L 234.988281 128.382812 C 236.765625 128.460938 238.535156 128.695312 240.277344 129.085938 C 238.90625 131.609375 237.144531 133.972656 234.988281 136.082031 Z M 224.542969 129.78125 C 226.015625 132.617188 227.933594 135.277344 230.296875 137.648438 C 225.910156 137 221.925781 135.117188 218.710938 132.367188 C 220.570312 131.285156 222.527344 130.425781 224.542969 129.78125 Z M 232.398438 136.082031 C 230.242188 133.972656 228.480469 131.609375 227.109375 129.085938 C 228.851562 128.695312 230.621094 128.460938 232.398438 128.382812 Z M 232.398438 116.132812 L 232.398438 125.792969 C 230.226562 125.875 228.066406 126.175781 225.949219 126.691406 C 224.496094 123.324219 223.695312 119.738281 223.539062 116.132812 Z M 232.398438 103.878906 L 232.398438 113.539062 L 223.539062 113.539062 C 223.695312 109.929688 224.496094 106.34375 225.949219 102.976562 C 228.066406 103.492188 230.226562 103.792969 232.398438 103.878906 Z M 224.542969 99.890625 C 222.527344 99.246094 220.570312 98.382812 218.710938 97.300781 C 221.925781 94.550781 225.910156 92.667969 230.296875 92.023438 C 227.933594 94.394531 226.015625 97.054688 224.542969 99.890625 Z M 232.398438 93.585938 L 232.398438 101.285156 C 230.621094 101.210938 228.851562 100.976562 227.109375 100.585938 C 228.480469 98.0625 230.242188 95.699219 232.398438 93.585938 Z M 237.089844 92.023438 C 241.476562 92.667969 245.457031 94.550781 248.675781 97.304688 C 246.816406 98.382812 244.855469 99.246094 242.84375 99.890625 C 241.375 97.054688 239.453125 94.394531 237.089844 92.023438 Z M 234.988281 93.585938 C 237.144531 95.699219 238.90625 98.0625 240.277344 100.585938 C 238.535156 100.976562 236.765625 101.210938 234.988281 101.285156 Z M 220.945312 116.132812 C 221.097656 119.984375 221.925781 123.808594 223.4375 127.414062 C 221.128906 128.175781 218.890625 129.207031 216.769531 130.503906 C 213.234375 126.6875 210.976562 121.667969 210.664062 116.132812 Z M 256.71875 113.539062 L 246.441406 113.539062 C 246.289062 109.6875 245.457031 105.859375 243.949219 102.257812 C 246.257812 101.492188 248.5 100.464844 250.613281 99.164062 C 254.152344 102.984375 256.414062 108.003906 256.71875 113.539062 Z M 233.691406 89.367188 C 219.628906 89.367188 208.226562 100.769531 208.226562 114.832031 C 208.226562 128.902344 219.628906 140.300781 233.691406 140.300781 C 247.757812 140.300781 259.160156 128.902344 259.160156 114.832031 C 259.160156 100.769531 247.757812 89.367188 233.691406 89.367188 " fill-opacity="1" fill-rule="nonzero"/><path fill="#083e78" d="M 100.980469 170.886719 L 100.980469 192.222656 C 100.980469 211.308594 107.132812 229.445312 118.484375 244.382812 C 122.160156 243.453125 125.851562 242.597656 129.558594 241.816406 C 146.597656 238.230469 164.03125 236.234375 181.46875 235.859375 L 181.46875 170.886719 L 100.980469 170.886719 " fill-opacity="1" fill-rule="nonzero"/><path fill="#3a95b5" d="M 193.554688 170.886719 L 193.554688 235.859375 C 210.996094 236.234375 228.425781 238.230469 245.460938 241.816406 C 249.109375 242.582031 252.742188 243.425781 256.363281 244.339844 C 267.695312 229.410156 273.832031 211.289062 273.832031 192.222656 L 273.832031 170.886719 L 193.554688 170.886719 " fill-opacity="1" fill-rule="nonzero"/><path fill="#3a95b5" d="M 181.46875 158.800781 L 181.46875 53.148438 L 100.980469 75.039062 L 100.980469 158.800781 L 181.46875 158.800781 " fill-opacity="1" fill-rule="nonzero"/><path fill="#ffffff" d="M 112.550781 98.792969 L 112.550781 131.378906 L 113.957031 131.230469 C 115.035156 131.113281 116.136719 131.054688 117.226562 131.054688 C 124.328125 131.054688 130.367188 133.5625 134.1875 135.667969 C 138.332031 137.949219 140.78125 140.230469 140.808594 140.25 L 140.863281 140.300781 C 137.367188 138.410156 123.175781 131.457031 108.988281 135.097656 L 108.988281 98.976562 C 110.171875 98.847656 111.363281 98.789062 112.550781 98.792969 " fill-opacity="1" fill-rule="nonzero"/><path fill="#ffffff" d="M 138.390625 134.152344 C 133.796875 131.207031 126.320312 127.605469 117.226562 127.605469 C 116.816406 127.605469 116.40625 127.613281 115.996094 127.628906 L 115.996094 96.878906 C 116.40625 96.859375 116.816406 96.851562 117.226562 96.851562 C 121.863281 96.851562 126.554688 97.929688 131.171875 100.050781 C 134.371094 101.519531 136.863281 103.199219 138.390625 104.339844 Z M 113.820312 94.859375 L 113.820312 129.964844 C 126.957031 128.550781 137.269531 135.738281 140.566406 138.378906 L 140.566406 103.273438 C 137.269531 100.632812 126.957031 93.441406 113.820312 94.859375 " fill-opacity="1" fill-rule="nonzero"/><path fill="#ffffff" d="M 169.847656 98.792969 L 169.847656 131.378906 L 168.441406 131.230469 C 167.359375 131.113281 166.257812 131.054688 165.171875 131.054688 C 158.070312 131.054688 152.027344 133.5625 148.207031 135.667969 C 144.066406 137.949219 141.613281 140.230469 141.589844 140.25 L 141.535156 140.300781 C 145.027344 138.410156 159.21875 131.457031 173.410156 135.097656 L 173.410156 98.976562 C 172.222656 98.847656 171.03125 98.789062 169.847656 98.792969 " fill-opacity="1" fill-rule="nonzero"/><path fill="#ffffff" d="M 166.398438 127.628906 C 165.988281 127.613281 165.578125 127.605469 165.171875 127.605469 C 156.078125 127.605469 148.597656 131.207031 144.007812 134.152344 L 144.007812 104.339844 C 145.53125 103.199219 148.027344 101.519531 151.226562 100.050781 C 155.84375 97.929688 160.535156 96.851562 165.171875 96.851562 C 165.578125 96.851562 165.988281 96.859375 166.398438 96.878906 Z M 141.832031 103.273438 L 141.832031 138.378906 C 145.128906 135.738281 155.441406 128.550781 168.574219 129.964844 L 168.574219 94.859375 C 155.441406 93.441406 145.128906 100.632812 141.832031 103.273438 " fill-opacity="1" fill-rule="nonzero"/><path fill="#ffffff" d="M 215.265625 221.519531 L 214.628906 229.15625 L 221.785156 226.414062 C 220.082031 224.242188 217.832031 222.550781 215.265625 221.519531 Z M 228.382812 219.050781 C 226.574219 219.914062 224.355469 219.773438 222.644531 218.484375 C 220.929688 217.195312 220.171875 215.105469 220.496094 213.128906 C 219.085938 213.804688 217.429688 213.867188 215.957031 213.25 L 215.378906 220.21875 C 218.410156 221.359375 221.0625 223.347656 223.003906 225.945312 L 229.535156 223.441406 C 228.53125 222.199219 228.128906 220.589844 228.382812 219.050781 Z M 254.238281 185.652344 L 248.417969 193.40625 L 250.859375 195.238281 L 254.71875 190.097656 C 255.757812 188.710938 255.53125 186.769531 254.238281 185.652344 Z M 230.421875 217.375 C 229.257812 218.925781 229.300781 221.011719 230.390625 222.5 L 249.589844 196.929688 L 247.148438 195.097656 Z M 247.417969 192.652344 L 253.246094 184.890625 L 246.359375 179.722656 L 240.53125 187.484375 Z M 222.539062 211.457031 C 221.113281 213.351562 221.496094 216.058594 223.394531 217.480469 C 225.292969 218.90625 227.996094 218.523438 229.421875 216.625 L 246.144531 194.347656 L 239.261719 189.175781 Z M 245.351562 178.980469 C 243.917969 178.050781 241.992188 178.375 240.949219 179.761719 L 237.09375 184.898438 L 239.535156 186.734375 Z M 221.535156 210.703125 L 238.261719 188.425781 L 235.820312 186.59375 L 216.621094 212.167969 C 218.359375 212.792969 220.371094 212.253906 221.535156 210.703125 " fill-opacity="1" fill-rule="nonzero"/><path fill="#ffffff" d="M 134.15625 191.226562 C 132.285156 191.226562 130.769531 192.742188 130.769531 194.613281 C 130.769531 196.480469 132.285156 198 134.15625 198 L 137.542969 198 L 137.542969 194.613281 C 137.542969 192.742188 136.027344 191.226562 134.15625 191.226562 " fill-opacity="1" fill-rule="nonzero"/><path fill="#ffffff" d="M 141.226562 214.492188 C 142.796875 214.492188 144.078125 213.210938 144.078125 211.640625 L 144.078125 198.828125 L 138.371094 198.828125 L 138.371094 211.640625 C 138.371094 213.210938 139.652344 214.492188 141.226562 214.492188 " fill-opacity="1" fill-rule="nonzero"/><path fill="#ffffff" d="M 151.679688 194.613281 C 151.679688 192.742188 150.164062 191.226562 148.292969 191.226562 C 146.425781 191.226562 144.90625 192.742188 144.90625 194.613281 L 144.90625 198 L 148.292969 198 C 150.164062 198 151.679688 196.480469 151.679688 194.613281 " fill-opacity="1" fill-rule="nonzero"/><path fill="#ffffff" d="M 153.316406 183.800781 C 150.085938 180.613281 145.792969 178.859375 141.226562 178.859375 L 141.183594 178.859375 C 136.601562 178.867188 132.292969 180.660156 129.054688 183.910156 C 125.816406 187.152344 124.03125 191.464844 124.03125 196.050781 C 124.03125 200.886719 126.085938 205.527344 129.667969 208.78125 C 131.65625 210.585938 133.34375 212.703125 134.6875 215.070312 L 134.6875 199.660156 L 135.519531 199.660156 L 135.519531 214.367188 C 136.6875 214.015625 137.542969 212.921875 137.542969 211.640625 L 137.542969 198.828125 L 134.15625 198.828125 C 131.828125 198.828125 129.941406 196.941406 129.941406 194.613281 C 129.941406 192.285156 131.828125 190.398438 134.15625 190.398438 C 136.484375 190.398438 138.371094 192.285156 138.371094 194.613281 L 138.371094 198 L 144.078125 198 L 144.078125 194.613281 C 144.078125 192.285156 145.964844 190.398438 148.292969 190.398438 C 150.621094 190.398438 152.507812 192.285156 152.507812 194.613281 C 152.507812 196.941406 150.621094 198.828125 148.292969 198.828125 L 144.90625 198.828125 L 144.90625 211.640625 C 144.90625 212.921875 145.761719 214.015625 146.933594 214.367188 L 146.933594 199.660156 L 147.761719 199.660156 L 147.761719 215.15625 C 149.128906 212.738281 150.847656 210.566406 152.875 208.695312 C 156.460938 205.390625 158.480469 200.699219 158.417969 195.820312 C 158.355469 191.257812 156.546875 186.984375 153.316406 183.800781 " fill-opacity="1" fill-rule="nonzero"/><path fill="#ffffff" d="M 147.144531 222.058594 C 147.144531 225.082031 145.039062 227.613281 142.214844 228.273438 C 144.402344 227.0625 145.882812 224.730469 145.882812 222.058594 L 145.882812 220.53125 L 147.144531 220.53125 Z M 134.125 219.8125 L 134.125 222.058594 C 134.125 225.976562 137.304688 229.15625 141.226562 229.15625 C 145.144531 229.15625 148.324219 225.976562 148.324219 222.058594 L 148.324219 219.8125 L 134.125 219.8125 " fill-opacity="1" fill-rule="nonzero"/><path fill="#ffffff" d="M 148.324219 216.425781 L 134.125 216.425781 L 134.125 218.355469 L 148.324219 218.355469 L 148.324219 216.425781 " fill-opacity="1" fill-rule="nonzero"/><g fill="#ffffff" fill-opacity="1"><g transform="translate(102.363648, 286.443177)"><g><path d="M 6.6875 -26.625 C 10.019531 -27.570312 12.890625 -27.484375 15.296875 -26.359375 C 17.710938 -25.234375 19.359375 -23.125 20.234375 -20.03125 L 13.328125 -18.078125 C 12.960938 -19.390625 12.328125 -20.328125 11.421875 -20.890625 C 10.515625 -21.460938 9.429688 -21.570312 8.171875 -21.21875 C 6.710938 -20.800781 5.769531 -20.035156 5.34375 -18.921875 C 4.914062 -17.816406 4.929688 -16.445312 5.390625 -14.8125 L 5.984375 -12.71875 C 6.441406 -11.101562 7.144531 -9.925781 8.09375 -9.1875 C 9.039062 -8.457031 10.21875 -8.289062 11.625 -8.6875 C 13.019531 -9.082031 13.976562 -9.742188 14.5 -10.671875 C 15.019531 -11.597656 15.097656 -12.710938 14.734375 -14.015625 L 21.40625 -15.90625 C 22.269531 -12.832031 21.988281 -10.210938 20.5625 -8.046875 C 19.144531 -5.878906 16.710938 -4.304688 13.265625 -3.328125 C 9.421875 -2.242188 6.234375 -2.40625 3.703125 -3.8125 C 1.171875 -5.21875 -0.632812 -7.84375 -1.71875 -11.6875 C -2.800781 -15.519531 -2.628906 -18.695312 -1.203125 -21.21875 C 0.210938 -23.738281 2.84375 -25.539062 6.6875 -26.625 Z M 6.6875 -26.625 "/></g></g></g><g fill="#ffffff" fill-opacity="1"><g transform="translate(129.581251, 278.795433)"><g><path d="M 10.015625 -25.8125 C 13.992188 -26.476562 17.238281 -25.972656 19.75 -24.296875 C 22.257812 -22.617188 23.835938 -19.84375 24.484375 -15.96875 C 25.140625 -12.070312 24.550781 -8.925781 22.71875 -6.53125 C 20.894531 -4.132812 17.992188 -2.601562 14.015625 -1.9375 C 10.035156 -1.269531 6.796875 -1.765625 4.296875 -3.421875 C 1.804688 -5.085938 0.234375 -7.878906 -0.421875 -11.796875 C -1.078125 -15.691406 -0.5 -18.832031 1.3125 -21.21875 C 3.132812 -23.613281 6.035156 -25.144531 10.015625 -25.8125 Z M 10.953125 -20.28125 C 9.367188 -20.007812 8.242188 -19.328125 7.578125 -18.234375 C 6.910156 -17.140625 6.710938 -15.773438 6.984375 -14.140625 L 7.34375 -12 C 7.613281 -10.363281 8.242188 -9.128906 9.234375 -8.296875 C 10.222656 -7.472656 11.507812 -7.195312 13.09375 -7.46875 C 14.675781 -7.726562 15.804688 -8.410156 16.484375 -9.515625 C 17.160156 -10.617188 17.363281 -11.988281 17.09375 -13.625 L 16.734375 -15.765625 C 16.460938 -17.398438 15.828125 -18.625 14.828125 -19.4375 C 13.828125 -20.257812 12.535156 -20.539062 10.953125 -20.28125 Z M 10.953125 -20.28125 "/></g></g></g><g fill="#ffffff" fill-opacity="1"><g transform="translate(159.289159, 273.919068)"><g><path d="M 19.21875 -1.015625 L 8.796875 -11.84375 L 9.40625 -0.5 L 2.515625 -0.140625 L 1.28125 -23.5 L 7.828125 -23.84375 L 18.25 -12.84375 L 17.640625 -24.359375 L 24.546875 -24.734375 L 25.78125 -1.375 Z M 19.21875 -1.015625 "/></g></g></g><g fill="#ffffff" fill-opacity="1"><g transform="translate(189.42433, 272.517318)"><g><path d="M 16.890625 -16.53125 L 15.96875 0.84375 L 8.453125 0.453125 L 9.375 -16.921875 L 1.703125 -17.328125 L 2.015625 -23.3125 L 24.828125 -22.109375 L 24.515625 -16.125 Z M 16.890625 -16.53125 "/></g></g></g><g fill="#ffffff" fill-opacity="1"><g transform="translate(215.791694, 273.917335)"><g><path d="M 17.75 -21.25 C 21.738281 -20.613281 24.648438 -19.101562 26.484375 -16.71875 C 28.328125 -14.332031 28.9375 -11.195312 28.3125 -7.3125 C 27.6875 -3.40625 26.125 -0.609375 23.625 1.078125 C 21.132812 2.765625 17.894531 3.289062 13.90625 2.65625 C 9.914062 2.007812 7.003906 0.503906 5.171875 -1.859375 C 3.335938 -4.234375 2.738281 -7.382812 3.375 -11.3125 C 4 -15.21875 5.550781 -18.007812 8.03125 -19.6875 C 10.519531 -21.375 13.757812 -21.894531 17.75 -21.25 Z M 16.859375 -15.703125 C 15.265625 -15.960938 13.976562 -15.675781 13 -14.84375 C 12.019531 -14.019531 11.398438 -12.789062 11.140625 -11.15625 L 10.796875 -9 C 10.523438 -7.363281 10.722656 -6 11.390625 -4.90625 C 12.066406 -3.820312 13.203125 -3.148438 14.796875 -2.890625 C 16.390625 -2.640625 17.679688 -2.925781 18.671875 -3.75 C 19.660156 -4.570312 20.289062 -5.800781 20.5625 -7.4375 L 20.90625 -9.59375 C 21.164062 -11.226562 20.953125 -12.59375 20.265625 -13.6875 C 19.585938 -14.78125 18.453125 -15.453125 16.859375 -15.703125 Z M 16.859375 -15.703125 "/></g></g></g><g fill="#ffffff" fill-opacity="1"><g transform="translate(245.499875, 278.791834)"><g><path d="M 17.625 4.921875 L 20.015625 -3.625 L 12.046875 -5.84375 L 9.65625 2.703125 L 2.421875 0.671875 L 8.71875 -21.859375 L 15.953125 -19.828125 L 13.65625 -11.609375 L 21.625 -9.390625 L 23.921875 -17.609375 L 31.15625 -15.59375 L 24.859375 6.9375 Z M 17.625 4.921875 "/></g></g></g><g fill="#083e78" fill-opacity="1"><g transform="translate(107.558379, 323.383975)"><g><path d="M 9.046875 4.328125 L 9.328125 2.453125 L 5.265625 0.5 L 3.984375 1.90625 L 0.171875 0.078125 L 9.984375 -9.53125 L 14.34375 -7.4375 L 13 6.234375 Z M 7.28125 -1.71875 L 9.8125 -0.515625 L 10.578125 -5.25 L 10.515625 -5.28125 Z M 7.28125 -1.71875 "/></g></g></g><g fill="#083e78" fill-opacity="1"><g transform="translate(125.538065, 331.765247)"><g><path d="M 10.53125 3.453125 L 11.390625 -4.53125 L 11.328125 -4.5625 L 7.296875 2.390625 L 2.953125 0.96875 L 4.125 -12.234375 L 8.21875 -10.890625 L 7.34375 -3.46875 L 7.421875 -3.453125 L 11.078125 -9.953125 L 14.96875 -8.671875 L 14.15625 -1.234375 L 14.234375 -1.21875 L 17.84375 -7.734375 L 21.75 -6.453125 L 14.859375 4.875 Z M 10.53125 3.453125 "/></g></g></g><g fill="#083e78" fill-opacity="1"><g transform="translate(148.486239, 338.822412)"><g><path d="M 10.078125 -11.46875 C 12.265625 -11.0625 13.847656 -10.1875 14.828125 -8.84375 C 15.816406 -7.5 16.113281 -5.757812 15.71875 -3.625 C 15.3125 -1.488281 14.40625 0.0234375 13 0.921875 C 11.601562 1.816406 9.8125 2.0625 7.625 1.65625 C 5.4375 1.238281 3.851562 0.363281 2.875 -0.96875 C 1.894531 -2.300781 1.609375 -4.039062 2.015625 -6.1875 C 2.410156 -8.332031 3.304688 -9.851562 4.703125 -10.75 C 6.097656 -11.644531 7.890625 -11.882812 10.078125 -11.46875 Z M 9.515625 -8.421875 C 8.640625 -8.585938 7.921875 -8.445312 7.359375 -8 C 6.804688 -7.5625 6.445312 -6.890625 6.28125 -5.984375 L 6.0625 -4.8125 C 5.894531 -3.914062 5.988281 -3.160156 6.34375 -2.546875 C 6.707031 -1.941406 7.328125 -1.554688 8.203125 -1.390625 C 9.066406 -1.234375 9.78125 -1.375 10.34375 -1.8125 C 10.90625 -2.25 11.269531 -2.914062 11.4375 -3.8125 L 11.65625 -4.984375 C 11.820312 -5.890625 11.722656 -6.648438 11.359375 -7.265625 C 10.992188 -7.878906 10.378906 -8.265625 9.515625 -8.421875 Z M 9.515625 -8.421875 "/></g></g></g><g fill="#083e78" fill-opacity="1"><g transform="translate(169.010805, 342.328223)"><g><path d="M 10.90625 -12.25 L 16.03125 -11.9375 L 11.078125 -6.921875 L 15.328125 0.9375 L 10.453125 0.640625 L 8.0625 -4.21875 L 5.6875 -2.546875 L 5.515625 0.34375 L 1.390625 0.078125 L 2.1875 -12.796875 L 6.3125 -12.53125 L 5.96875 -7.03125 Z M 10.90625 -12.25 "/></g></g></g><g fill="#083e78" fill-opacity="1"><g transform="translate(189.79044, 343.266186)"><g><path d="M 10.015625 -0.578125 L 9.359375 -2.359375 L 4.84375 -2.109375 L 4.421875 -0.25 L 0.1875 -0.015625 L 4.125 -13.171875 L 8.953125 -13.453125 L 14.390625 -0.84375 Z M 5.53125 -5.03125 L 8.328125 -5.1875 L 6.71875 -9.703125 L 6.640625 -9.703125 Z M 5.53125 -5.03125 "/></g></g></g><g fill="#083e78" fill-opacity="1"><g transform="translate(209.581308, 341.905773)"><g><path d="M 10.890625 -2.0625 L 7.765625 -9.46875 L 7.703125 -9.46875 L 7.53125 -1.4375 L 3.046875 -0.578125 L -2.3125 -12.6875 L 1.921875 -13.5 L 4.734375 -6.59375 L 4.8125 -6.609375 L 4.890625 -14.0625 L 8.90625 -14.828125 L 11.78125 -7.9375 L 11.859375 -7.953125 L 11.875 -15.390625 L 15.921875 -16.15625 L 15.359375 -2.921875 Z M 10.890625 -2.0625 "/></g></g></g><g fill="#083e78" fill-opacity="1"><g transform="translate(233.079182, 336.979403)"><g><path d="M 3.265625 -14.90625 C 5.378906 -15.613281 7.191406 -15.617188 8.703125 -14.921875 C 10.210938 -14.222656 11.3125 -12.84375 12 -10.78125 C 12.6875 -8.71875 12.628906 -6.957031 11.828125 -5.5 C 11.035156 -4.039062 9.582031 -2.957031 7.46875 -2.25 C 5.351562 -1.550781 3.546875 -1.546875 2.046875 -2.234375 C 0.546875 -2.929688 -0.546875 -4.316406 -1.234375 -6.390625 C -1.921875 -8.460938 -1.867188 -10.222656 -1.078125 -11.671875 C -0.296875 -13.128906 1.148438 -14.207031 3.265625 -14.90625 Z M 4.25 -11.96875 C 3.40625 -11.6875 2.84375 -11.21875 2.5625 -10.5625 C 2.289062 -9.914062 2.300781 -9.15625 2.59375 -8.28125 L 2.96875 -7.140625 C 3.257812 -6.273438 3.707031 -5.660156 4.3125 -5.296875 C 4.925781 -4.941406 5.65625 -4.90625 6.5 -5.1875 C 7.332031 -5.46875 7.890625 -5.929688 8.171875 -6.578125 C 8.453125 -7.234375 8.445312 -7.992188 8.15625 -8.859375 L 7.78125 -10 C 7.488281 -10.875 7.035156 -11.488281 6.421875 -11.84375 C 5.804688 -12.207031 5.082031 -12.25 4.25 -11.96875 Z M 4.25 -11.96875 "/></g></g></g><g fill="#083e78" fill-opacity="1"><g transform="translate(252.738295, 330.118851)"><g><path d="M 3.609375 -16 L 8.25 -18.203125 L 6.328125 -11.421875 L 13.875 -6.59375 L 9.453125 -4.484375 L 5 -7.609375 L 3.765625 -4.984375 L 5 -2.375 L 1.25 -0.59375 L -4.28125 -12.25 L -0.53125 -14.03125 L 1.828125 -9.046875 Z M 3.609375 -16 "/></g></g></g></svg>